M48
; DRILL file {KiCad 8.0.0} date 2025-03-15T14:25:56+0100
; FORMAT={-:-/ absolute / inch / decimal}
; #@! TF.CreationDate,2025-03-15T14:25:56+01:00
; #@! TF.GenerationSoftware,Kicad,Pcbnew,8.0.0
; #@! TF.FileFunction,Plated,1,2,PTH
FMAT,2
INCH
; #@! TA.AperFunction,Plated,PTH,ViaDrill
T1C0.0039
; #@! TA.AperFunction,Plated,PTH,ComponentDrill
T2C0.0236
%
G90
G05
T1
X3.0348Y-0.9255
X3.052Y-1.6307
X3.0709Y-1.061
X3.0709Y-1.5945
X3.0729Y-1.5728
X3.0906Y-0.9843
X3.0997Y-1.0039
X3.103Y-1.167
X3.1132Y-1.1502
X3.1328Y-1.2691
X3.1338Y-1.1062
X3.1537Y-1.1016
X3.1774Y-1.1253
X3.1839Y-1.2788
X3.189Y-1.2598
X3.189Y-1.3189
X3.191Y-1.2972
X3.273Y-1.3802
X3.273Y-1.4002
X3.274Y-1.3386
X3.2789Y-0.9557
X3.2825Y-1.2402
X3.2825Y-1.2598
X3.313Y-1.1217
X3.3132Y-1.0979
X3.3151Y-1.0783
X3.3159Y-1.1647
X3.3268Y-0.9695
X3.3268Y-1.0311
X3.3465Y-0.9695
X3.3488Y-1.3583
X3.3549Y-0.9927
X3.3569Y-1.0144
X3.3648Y-1.4029
X3.3729Y-1.4875
X3.3834Y-1.3287
X3.3878Y-1.3077
X3.3935Y-1.4638
X3.394Y-1.1243
X3.3998Y-1.7102
X3.4055Y-1.3583
X3.407Y-1.278
X3.4137Y-0.9695
X3.4268Y-1.5764
X3.4268Y-1.6126
X3.4305Y-1.2817
X3.461Y-1.2992
X3.4611Y-0.9704
X3.4646Y-1.2699
X3.5259Y-1.2795
X3.5269Y-0.9727
X3.5391Y-1.1959
X3.5433Y-1.3524
X3.5445Y-1.286
X3.5466Y-0.9728
X3.5551Y-1.3071
X3.5604Y-1.2744
X3.563Y-1.3385
X3.563Y-1.4878
X3.5675Y-0.973
X3.5827Y-1.3583
X3.5894Y-1.0105
X3.6024Y-0.937
X3.6215Y-1.0235
X3.622Y-0.9865
X3.624Y-1.4567
X3.6265Y-1.0447
X3.6277Y-1.0829
X3.64Y-1.1154
X3.6404Y-1.0308
X3.6417Y-1.6535
X3.6434Y-1.6178
X3.648Y-1.0039
X3.6481Y-1.0942
X3.6507Y-1.5781
X3.6514Y-1.3246
X3.6564Y-1.164
X3.6614Y-1.3976
X3.6643Y-1.19
X3.6655Y-0.937
X3.6749Y-1.0715
X3.6984Y-1.5
X3.7008Y-0.9232
X3.7467Y-1.4348
X3.7577Y-1.5451
X3.7602Y-1.4683
X3.7795Y-0.9449
X3.7795Y-1.3976
X3.7844Y-1.4593
X3.8118Y-1.3583
X3.8311Y-1.4426
X3.8386Y-1.3386
X3.8583Y-0.9449
X3.861Y-1.2772
X3.878Y-1.4173
X3.8976Y-1.1943
X3.9253Y-1.0625
X3.9567Y-0.9449
X3.9608Y-1.1121
X3.9659Y-1.1625
X4.0268Y-1.5724
X4.0354Y-1.1974
X4.0522Y-1.5419
X4.0681Y-1.2709
X4.1181Y-1.499
X4.1205Y-1.3217
X4.1437Y-1.5157
X4.2732Y-1.3228
T2
G00X3.9441Y-1.4476
M15
G01X3.9441Y-1.4909
M16
G05
G00X3.9441Y-1.6181
M15
G01X3.9441Y-1.6496
M16
G05
G00X4.2843Y-1.4476
M15
G01X4.2843Y-1.4909
M16
G05
G00X4.2843Y-1.6181
M15
G01X4.2843Y-1.6496
M16
G05
M30
